<?xml version="1.0" encoding="UTF-8"?><svg id="Layer_1" xmlns="http://www.w3.org/2000/svg" viewBox="0 0 5221.27 3476.61"><defs><style>.cls-1{fill:#fff;}.cls-2{fill:#fffce6;}.cls-3{fill:#a4c7e0;}.cls-4{fill:#f5aa37;}.cls-5{fill:#273f68;}</style></defs><g><rect class="cls-2" x="467.44" y="146.42" width="4286.38" height="2168.59" rx="525.61" ry="525.61"/><g><path class="cls-3" d="m1329.62,1450.3c-156.9-95.05-260.44-270.37-268.74-453.54-14.47-254.93,152.34-494.56,396.62-569.13,54.85-17.19,111.71-25.9,169-25.9,62.83,0,124.88,10.46,184.6,31.09,79.8-100.09,174.1-189,279.91-263.85,9.88-6.99,4.93-22.54-7.17-22.54H915.45c-247.43,0-448,200.58-448,448v1272.59c0,247.42,200.58,448,448,448h1146.83c11.98,0,17.01-15.3,7.37-22.4-248.01-182.6-429.74-443.67-504.71-744.42-67.43-25.58-175.76-58.6-235.32-97.89Z"/><path class="cls-1" d="m2062.28,2315.51H915.45c-60.55,0-119.28-11.86-174.58-35.25-53.41-22.59-101.37-54.93-142.56-96.12-41.19-41.19-73.53-89.15-96.12-142.56-23.39-55.29-35.25-114.03-35.25-174.58V594.43c0-60.55,11.86-119.28,35.25-174.58,22.59-53.41,54.93-101.37,96.12-142.56,41.19-41.19,89.15-73.53,142.56-96.12,55.29-23.39,114.03-35.25,174.58-35.25h1168.39c5.74,0,10.57,3.53,12.31,9,1.74,5.47-.17,11.14-4.85,14.45-105.8,74.85-199.95,163.59-279.81,263.76l-.22.28-.33-.12c-59.67-20.61-121.73-31.06-184.44-31.06-57.24,0-114.05,8.71-168.85,25.88-244.09,74.51-410.75,313.65-396.27,568.62,8.35,184.23,111.23,357.86,268.5,453.14h.02c45.74,30.19,121.85,57.21,183.01,78.93,18.83,6.69,36.62,13,52.21,18.92l.24.09.06.25c73.37,294.35,252.55,558.62,504.52,744.14,4.57,3.37,6.38,9.03,4.61,14.42-1.77,5.4-6.59,8.89-12.27,8.89ZM915.45,146.92c-246.75,0-447.5,200.75-447.5,447.5v1272.59c0,246.75,200.75,447.5,447.5,447.5h1146.83c5.24,0,9.69-3.22,11.32-8.2,1.63-4.98-.03-10.2-4.25-13.3-124.64-91.77-231.41-202.13-317.36-328.02-87.4-128.03-150.48-268.12-187.48-416.42-15.52-5.88-33.21-12.17-51.94-18.82-61.21-21.73-137.38-48.78-183.22-79.02-76.99-46.64-142.78-113.69-190.26-193.89-47.42-80.1-74.64-170.02-78.72-260.05-14.5-255.42,152.45-494.99,396.97-569.63,54.9-17.2,111.81-25.92,169.15-25.92,62.71,0,124.76,10.43,184.43,31,79.88-100.13,174.01-188.84,279.79-263.67,4.32-3.06,6.08-8.29,4.47-13.33-1.6-5.04-6.06-8.3-11.35-8.3H915.45Z"/></g><g><path class="cls-3" d="m4318.24,146.42h-1440.84c-317.92,0-621.73,134.1-833.62,370.99l601.29,218.85,36.26,13.2c29.09-19.17,674.03-292.52,719.87-313.46,290.35-108.27,623.26,47.49,726.19,339.77,77.73,210.14,17.74,455.72-147.11,607.14-55.31,51.48-120.77,91.38-191.91,117.24,0,0-155.87,56.73-155.87,56.73-1.08,9.55-2.4,19.06-3.96,28.52-32.89,208.28-188.02,386.91-389.78,448.4-117.93,37.15-246.35,34.23-362.61-8.37,0,0-265.49-96.63-265.49-96.63l-265.49,96.63c-58.8,21.4-119.96,32.87-181.96,34.15,198.89,164.37,450.9,255.43,712.63,255.43h1442.4c240.57,0,435.59-195.02,435.59-435.59V582.01c0-240.57-195.02-435.59-435.59-435.59Z"/><path class="cls-1" d="m4318.24,2315.51h-1442.4c-130.06,0-257.93-22.24-380.05-66.11-121.68-43.71-233.68-107.44-332.9-189.44l-1.04-.86,1.35-.03c61.94-1.28,123.1-12.76,181.8-34.12l265.66-96.69.17.06,265.49,96.63c115.92,42.48,244.59,45.44,362.29,8.36,200.27-61.04,356.77-241.07,389.44-448,1.54-9.28,2.87-18.87,3.96-28.5l.04-.31.29-.11c1.56-.57,155.62-56.64,155.87-56.73,71.72-26.07,136.23-65.48,191.74-117.13,165.8-152.28,224.86-396.05,146.99-606.6-49.74-141.24-153.64-254.81-292.56-319.81-138.92-65-292.69-71.98-432.99-19.66-13.97,6.38-84.96,36.79-174.83,75.3-208.97,89.53-524.77,224.82-544.94,238.11l-.21.14-36.5-13.28-601.98-219.1.49-.55c210.99-235.88,514.97-371.16,833.99-371.16h1440.84c58.87,0,115.98,11.53,169.75,34.27,51.93,21.96,98.57,53.41,138.62,93.46,40.05,40.05,71.49,86.69,93.46,138.62,22.74,53.76,34.27,110.87,34.27,169.74v1297.42c0,58.87-11.53,115.98-34.27,169.74-21.96,51.93-53.41,98.57-93.46,138.62-40.05,40.05-86.69,71.49-138.62,93.46-53.76,22.74-110.87,34.27-169.75,34.27Zm-2153.67-255.46c199.06,164.11,451.6,254.46,711.27,254.46h1442.4c239.91,0,435.09-195.18,435.09-435.09V582.01c0-239.91-195.18-435.09-435.09-435.09h-1440.84c-318.49,0-621.97,134.96-832.75,370.28l636.62,231.71c22.16-14.11,336.59-148.82,544.89-238.06,89.87-38.5,160.85-68.91,174.84-75.3,70.97-26.47,145.56-37.81,221.72-33.73,73.37,3.93,144.72,21.9,212.08,53.42s126.88,74.78,176.91,128.58c51.93,55.85,91.02,120.38,116.17,191.79,19.12,51.69,30.23,106.32,33.01,162.36,2.72,54.71-2.53,109.72-15.59,163.51-13.05,53.74-33.61,105.05-61.11,152.49-28.13,48.52-62.97,92.03-103.56,129.31-55.6,51.74-120.23,91.22-192.08,117.34l-.03-.09c-.63.33-2.32.94-6.67,2.53l-148.88,54.19c-1.09,9.54-2.41,19.04-3.93,28.24-16.15,102.3-61.69,198.95-131.68,279.49-70.02,80.57-159.39,139.11-258.45,169.31-54.75,17.25-111.89,25.85-169,25.85-65.88,0-131.73-11.44-193.93-34.23l-265.31-96.57-265.31,96.57c-58.37,21.25-119.18,32.73-180.77,34.15Z"/></g><g><path class="cls-4" d="m4060.4,957.8c-5.28-222.95-166.39-410.28-386.5-448.65-58.35-10.13-118.63-8.94-176.52,3.58-16.59,3.57-32.98,8.05-49.08,13.41-46.77,17.45-572.38,246.77-632.94,272.1-23.47,10.64-53.8,21.5-76.33,34.23-38.24,20.61-73.46,47.48-100.73,81.48-2.4,2.95-4.77,5.93-7.06,8.97-10.88,15.42-35.99,50.92-35.99,50.92,0,0-40.94,59-60.63,88.87-7.6,11.54-15.26,23.41-22.25,34.8-2.49,4.06-4.79,7.89-6.85,11.43-4.48,7.69-7.14,16.21-7.89,24.91-2.09,21.48,8.55,42.12,25.82,54.68,12.11,9.01,27.07,14.31,42.2,14.42,4.11,0,8.21-.35,12.24-1.14,11.48-2.24,21.05-5.38,29.9-12.4,6.82-5.51,11.77-11.45,18.03-20.95,15.34-24.18,49.72-78.31,64.79-102.06l29.85-47.02,3.21-5.06c15.14-22.13,33.05-42.19,53.38-59.6,18.6-15.91,60.56-41.33,60.56-41.33,0,0,31.69-16.12,48.33-22.58,161.62-62.22,423.18-162.24,586.35-225,24.64-8.96,50.34-15,76.4-17.84,44.19-4.84,89.33-.4,131.75,12.84,79.4,24.47,148.39,80.27,188.36,153.18,23.44,42.39,37.42,90.04,40.34,138.39,8.6,140.04-75.05,275.45-213.93,325.92,0,0-89.46,32.56-89.46,32.56.12.34-95.67,33.96-94.41,34.86,1.72,5.12,3.33,10.27,4.87,15.45,7.7,25.88,13.12,52.43,16.22,79.25,1.36,11.86,2.25,23.76,2.72,35.69.1,3,.13,6.02.28,8.99,9.5-3.76,92.29-33.37,98.92-36,0,0,119.6-43.53,119.6-43.53,192.47-70.05,310.7-253.8,306.44-447.8Z"/><path class="cls-1" d="m3534.97,1485.86l-.03-.7c-.09-1.81-.13-3.64-.18-5.47-.03-1.17-.06-2.35-.1-3.52-.48-12.11-1.39-24.11-2.72-35.65-3.1-26.81-8.55-53.45-16.2-79.16-1.75-5.84-3.28-10.7-4.82-15.28l-.11-.08.03-.33c.12-.86,6.34-3.42,68.41-25.67,12.66-4.54,23.73-8.5,25.89-9.37v-.04s89.91-32.73,89.91-32.73c134.53-48.89,222.37-182.71,213.6-325.42-2.9-47.99-16.83-95.78-40.28-138.18-39.82-72.63-108.37-128.38-188.07-152.94-42.24-13.19-87.73-17.62-131.55-12.82-25.88,2.82-51.54,8.81-76.29,17.81-76.92,29.59-177.93,68.31-275.62,105.75-110.77,42.46-225.31,86.36-310.73,119.25-16.42,6.37-47.97,22.39-48.29,22.56-.39.24-42.1,25.56-60.46,41.27-20.19,17.3-38.12,37.32-53.29,59.5l-33.05,52.06c-7.11,11.21-18.53,29.18-30.21,47.58-13.07,20.59-26.48,41.7-34.58,54.47-6.6,10.02-11.52,15.73-18.14,21.07-9.73,7.72-20.23,10.57-30.12,12.5-3.88.76-8.02,1.15-12.29,1.15h-.05c-14.97-.11-30.06-5.27-42.5-14.52-18.07-13.15-28.04-34.28-26.02-55.13.76-8.79,3.52-17.48,7.96-25.11,2.01-3.45,4.31-7.3,6.86-11.44,6.14-10,13.21-21.06,22.26-34.81,19.47-29.54,60.23-88.29,60.64-88.88,0,0,25.11-35.5,35.99-50.92,2.1-2.79,4.42-5.72,7.09-9,25.54-31.83,59.48-59.29,100.88-81.6,14.9-8.42,33.09-15.97,50.67-23.27,9.12-3.79,17.73-7.36,25.69-10.97,21.9-9.16,105.99-45.6,203.36-87.78,178.09-77.16,399.73-173.18,429.61-184.33,16.13-5.36,32.67-9.88,49.15-13.43,57.5-12.44,118.6-13.68,176.71-3.58,54.08,9.43,105.44,27.93,152.67,54.99,45.97,26.34,86.82,60.08,121.43,100.28,34.6,40.19,61.89,85.58,81.11,134.92,19.74,50.67,30.4,104.14,31.7,158.93h0c1.05,48.04-5.35,95.85-19.04,142.11-13.53,45.73-33.88,88.98-60.49,128.55-55.28,82.2-133.85,143.62-227.24,177.61l-100.92,36.73c-14.1,5.13-17.7,6.44-18.71,6.71l.03.08c-3.05,1.21-22.38,8.19-42.84,15.58-23.88,8.62-50.95,18.39-56.08,20.43l-.65.26Zm-23.04-139.94c1.52,4.54,3.04,9.37,4.77,15.15,7.67,25.77,13.13,52.46,16.24,79.33,1.33,11.56,2.24,23.58,2.72,35.73.04,1.18.07,2.36.1,3.53.04,1.59.08,3.18.15,4.75,6.47-2.5,32.44-11.87,55.45-20.18,20.46-7.38,39.78-14.36,42.81-15.57.33-.12,118.42-43.1,119.62-43.54,187.46-68.23,310.47-248.01,306.12-447.31h0c-5.25-221.6-167.62-410.08-386.08-448.16-57.98-10.07-118.96-8.83-176.33,3.58-16.45,3.54-32.95,8.04-49.03,13.39-29.84,11.13-251.46,107.16-429.54,184.31-97.37,42.19-181.47,78.62-203.36,87.78-7.96,3.61-16.58,7.19-25.7,10.98-17.56,7.29-35.72,14.83-50.57,23.23-41.29,22.25-75.13,49.63-100.59,81.36-2.66,3.27-4.97,6.2-7.06,8.96-10.87,15.41-35.98,50.91-35.98,50.91-.41.59-41.16,59.33-60.62,88.86-9.05,13.75-16.11,24.8-22.25,34.79-2.54,4.14-4.84,7.98-6.84,11.42-4.37,7.51-7.08,16.05-7.83,24.7-1.99,20.51,7.82,41.29,25.61,54.24,12.27,9.13,27.15,14.22,41.91,14.33h.05c4.2,0,8.27-.38,12.1-1.13,9.77-1.91,20.13-4.71,29.69-12.3,6.53-5.27,11.38-10.92,17.92-20.83,8.09-12.76,21.5-33.88,34.57-54.46,11.68-18.4,23.1-36.38,30.21-47.58l33.06-52.08c15.23-22.27,33.22-42.36,53.47-59.71,18.42-15.76,60.21-41.12,60.63-41.38.35-.18,31.94-16.23,48.41-22.62,85.42-32.89,199.96-76.79,310.73-119.25,97.68-37.44,198.69-76.16,275.62-105.75,24.83-9.03,50.57-15.04,76.53-17.87,43.96-4.81,89.59-.37,131.96,12.86,79.94,24.64,148.7,80.56,188.65,153.41,23.52,42.53,37.49,90.46,40.4,138.6,2.13,34.65-1.33,69.33-10.28,103.07-8.83,33.27-22.78,64.83-41.46,93.79-38.87,60.25-95.06,105.06-162.52,129.57l-89.46,32.56-.02-.05c-.69.39-2.6,1.08-7.54,2.87-4.72,1.71-11.32,4.07-18.79,6.75-24.12,8.65-64.07,22.97-67.66,24.97Z"/></g><g><path class="cls-5" d="m3535.41,1485.14c-1.68-102.62-38.6-204.1-103.07-283.94-44.23-55.3-103.42-101.82-170.51-131.96-8.43-6.01-267.69-98.22-285.49-105.33,0,0-138.74-50.5-138.74-50.5-14.12,7.78-27.75,16.38-40.82,25.8-12.49,8.99-24.22,18.94-35.19,29.72-15.38,15.27-29.51,32.09-41.15,50.48,0,0,98.33,35.79,98.33,35.79,59.42,22.43,313.76,112.55,375.21,137.63,118.43,53.32,193.45,175.14,190.64,302.42-1.16,67.83-24.33,135.31-65.11,189.62-30.84,41.25-71.69,74.87-117.98,97.39-58.82,28.8-126.4,39.35-191.17,29.44-16.89-2.55-33.58-6.44-49.87-11.6-229.01-82.44-736.4-268.01-971.88-353.41-140.48-51.04-321.54-117.1-462.55-168.35-97.15-34.68-173.35-116.86-201.55-215.44-31.95-107.76-3.77-228.41,72.84-311.19,88.32-96.7,228.93-131.16,351.63-85.88,178.39,64.94,592.43,215.62,772.08,281.02,0,0,74.15,26.99,74.15,26.99.18-.25.35-.51.53-.76,15.32-21.88,24.43-34.72,35.45-50.16,17.77-23.47,38.77-44.44,62.54-61.86-248.89-90.02-672.01-245.18-918.76-334.25-17.32-5.84-34.97-10.67-52.85-14.45-34.07-7.2-68.96-10.56-103.78-9.93-91.08,1.47-181.37,30.63-256.31,82.36-58.4,40.15-107.41,93.85-141.9,155.78-122.05,217.48-50.02,495.01,164.08,625.18,26.25,15.95,54.05,29.26,82.98,39.79,299.56,109.2,638.67,232.34,939.25,341.86,157.06,57.33,346.5,126,504.09,183.47,9.56,3.48,19.23,6.64,28.99,9.5,23.71,6.93,47.97,11.99,72.48,15.07,42.91,5.42,86.58,4.75,129.3-1.95,83.04-12.9,162.33-48.79,226.84-102.65,107.69-89.1,170.01-226.32,167.24-365.72Zm-56.55,83.19s.14.1.19.13c0,0-.18-.12-.18-.12,0,0,0,0,0,0Z"/><path class="cls-1" d="m3069.75,1959.59c-19.3,0-38.6-1.21-57.78-3.63-24.39-3.07-48.8-8.14-72.56-15.09-9.78-2.87-19.55-6.07-29.02-9.51-74.42-27.14-157.48-57.34-237.81-86.54-90.16-32.78-183.39-66.67-266.28-96.93-142.22-51.82-295.78-107.68-444.28-161.69-165.75-60.29-337.15-122.63-494.96-180.16-28.96-10.54-56.91-23.95-83.07-39.84-97.45-59.25-168.71-150.86-202.43-259.55,32.49,104.19,101.94,197.28,202.95,258.69,26.1,15.86,53.99,29.23,82.89,39.75,157.82,57.53,329.21,119.87,494.96,180.16,148.5,54.02,302.06,109.87,444.28,161.69,82.89,30.25,176.12,64.15,266.28,96.93,80.33,29.2,163.39,59.4,237.81,86.54,9.46,3.44,19.2,6.63,28.96,9.49,23.71,6.93,48.07,12,72.41,15.06,42.89,5.42,86.35,4.76,129.16-1.95,83.41-12.96,161.77-48.41,226.6-102.54,107.39-88.85,169.84-225.42,167.06-365.33h0c-1.68-102.76-38.25-203.49-102.96-283.63-45.17-56.46-104.06-102.05-170.32-131.82-5.73-4.08-128.07-48.25-209.02-77.49-39.49-14.26-70.69-25.53-76.45-27.83v-.02c-1.38-.48-14.22-5.15-138.52-50.39-14.03,7.74-27.67,16.37-40.57,25.66-12.29,8.85-24.11,18.83-35.13,29.67-16.25,16.14-29.96,32.91-40.75,49.87l97.75,35.58c21.83,8.24,69.72,25.52,125.16,45.54,94.09,33.96,211.18,76.23,250.07,92.1,57.92,26.08,106.68,68.84,141.02,123.67,34.05,54.38,51.32,116.36,49.93,179.23-1.16,68.02-24.32,135.46-65.21,189.91-30.79,41.18-71.65,74.91-118.16,97.54-58.97,28.88-126.97,39.35-191.46,29.48-16.85-2.54-33.66-6.45-49.94-11.62-139.71-50.29-386.86-140.37-604.92-219.84-141.49-51.57-275.13-100.27-366.97-133.58-73.97-26.88-160.36-58.34-243.9-88.76-74.67-27.2-151.89-55.32-218.65-79.59-47.62-17-91.47-46-126.82-83.88-35.19-37.71-61.14-83.32-75.04-131.89-15.7-52.97-17.19-110.1-4.3-165.21,12.9-55.14,39.61-105.78,77.25-146.45,43.41-47.54,99.84-80.85,163.17-96.33,63.37-15.49,128.73-11.92,189,10.32,94.28,34.32,254.38,92.59,410.92,149.56,139.65,50.83,276.46,100.62,361.16,131.45l73.79,26.86.31-.45c15.72-22.45,24.91-35.39,35.46-50.16,17.91-23.67,38.73-44.33,61.89-61.42-118.34-42.8-279.29-101.51-434.95-158.28-173.83-63.4-353.58-128.96-482.93-175.65-17.29-5.83-35.06-10.69-52.78-14.43-34.09-7.21-68.97-10.55-103.67-9.92-90.36,1.46-181.29,30.68-256.04,82.28-58.41,40.15-107.42,93.97-141.74,155.62-56.79,101.2-72.09,214.07-50.98,319.15-22.15-109.46-4.69-222,50.11-319.63,34.4-61.78,83.52-115.71,142.05-155.95,74.91-51.71,166.03-80.99,256.59-82.45,34.77-.62,69.73,2.72,103.9,9.95,17.77,3.76,35.57,8.62,52.91,14.47,129.35,46.7,309.11,112.26,482.94,175.66,156.05,56.91,317.41,115.77,435.83,158.6l.88.32-.76.55c-23.39,17.14-44.39,37.92-62.43,61.76-10.54,14.76-19.72,27.7-35.44,50.14l-.75,1.07-.36-.13-74.15-26.99c-84.7-30.83-221.51-80.63-361.16-131.45-156.54-56.97-316.64-115.24-410.92-149.56-122.03-45.04-263.12-10.58-351.09,85.74-77.01,83.21-104.88,202.26-72.73,310.71,28.16,98.43,105.27,180.85,201.24,215.11,66.76,24.27,143.98,52.39,218.65,79.59,83.54,30.43,169.92,61.89,243.9,88.77,91.84,33.31,225.49,82.01,366.97,133.58,218.06,79.47,465.22,169.55,604.9,219.83,16.22,5.14,32.97,9.04,49.77,11.58,64.29,9.83,132.08-.61,190.87-29.39,46.37-22.56,87.1-56.19,117.8-97.24,40.76-54.28,63.85-121.52,65.01-189.33,2.82-128.08-73.67-249.43-190.34-301.96-38.85-15.86-155.93-58.12-250.01-92.08-55.45-20.02-103.34-37.3-125.17-45.54l-98.91-36,.33-.53c10.88-17.19,24.75-34.21,41.22-50.57,11.06-10.88,22.92-20.89,35.25-29.77,12.99-9.36,26.74-18.05,40.87-25.83l.2-.11.21.08c1.39.5,138.51,50.41,138.74,50.5,5.77,2.3,36.96,13.57,76.44,27.82,85.85,31,203.41,73.46,209.17,77.57,66.32,29.79,125.34,75.47,170.61,132.06,64.84,80.31,101.49,181.27,103.18,284.24h0c2.79,140.2-59.79,277.07-167.42,366.12-64.96,54.24-143.49,89.77-227.08,102.75-23.76,3.72-47.72,5.59-71.66,5.59Zm409.02-390.71l-1.51-1.02,1.76-.02.32.22-.47.68v.1s0-.1,0-.1l-.09.14Z"/></g><g><path class="cls-4" d="m2472.34,1771.39c-18.76-6.8-47.15-17.19-65.87-23.98-34.18,12.38-106.42,38.88-139.64,50.73-11.12,3.76-22.44,6.93-33.9,9.47-47.38,10.58-97.11,10.27-144.36-.84-33.52-7.84-65.77-21.03-95.19-38.89-35.14-21.31-66.22-49.31-90.95-82.14-31.77-41.97-53.13-92.42-61.56-144.19-47.99-17.53-106.83-38.84-154.96-56.4-2.05,102.32,31.39,205.59,93.01,287.57,37.12,49.61,84.34,91.56,137.87,122.74,62.93,36.75,134.53,58.53,207.29,62.81,35.67,2.14,71.59.09,106.79-6.03,19.71-3.44,39.22-8.14,58.34-14.09,39.18-12.88,135.94-49.25,174.37-62.88,0,0,147.09-53.54,147.09-53.54l-130.65-47.55-7.67-2.79Z"/><path class="cls-1" d="m2151.53,1959.58c-9.18,0-18.35-.27-27.5-.82-72.63-4.27-144.39-26.01-207.52-62.88-53.44-31.13-101.17-73.61-138.01-122.87-30.71-40.85-54.41-86.71-70.46-136.31-16.05-49.62-23.67-100.61-22.65-151.58v-.7s.67.24.67.24c22.74,8.3,47.88,17.43,73.12,26.61,27.79,10.1,56.53,20.54,81.84,29.79l.27.1.05.29c8.53,52.33,29.79,102.11,61.47,143.96,24.45,32.46,55.85,60.82,90.81,82.01,29.52,17.91,61.49,30.98,95.05,38.83,47.14,11.09,96.98,11.38,144.14.84,11.32-2.51,22.71-5.69,33.85-9.46,21.09-7.52,58.1-21.02,90.75-32.93,18.86-6.88,36.41-13.28,48.88-17.79l.17-.06.17.06c8.85,3.21,19.87,7.23,31.01,11.29,12.41,4.53,24.98,9.11,34.87,12.69h0l139.61,50.81-1.29.47s-146.9,53.47-147.09,53.54c-13.85,4.91-35.71,12.94-58.85,21.43-42.41,15.57-90.47,33.21-115.54,41.45-19.03,5.92-38.68,10.66-58.41,14.11-26.24,4.57-52.85,6.86-79.41,6.86Zm-465.15-473.73c-1.9,102.56,31.09,204.3,92.92,286.56,36.77,49.15,84.39,91.54,137.72,122.61,63,36.79,134.6,58.48,207.07,62.74,35.55,2.13,71.44.11,106.68-6.02,19.69-3.44,39.29-8.17,58.27-14.07,25.05-8.24,73.1-25.88,115.5-41.44,23.14-8.5,45-16.52,58.85-21.43l.03.09c.62-.32,2.22-.91,6.29-2.39l139.48-50.77-137.02-49.87c-9.89-3.58-22.46-8.16-34.87-12.69-11.07-4.03-22.01-8.02-30.83-11.22-12.46,4.51-29.93,10.88-48.71,17.73-32.65,11.91-69.66,25.41-90.76,32.93-11.18,3.78-22.6,6.97-33.96,9.49-47.31,10.57-97.3,10.28-144.59-.85-33.66-7.88-65.73-20.98-95.34-38.95-35.07-21.26-66.57-49.71-91.09-82.27-31.72-41.9-53.02-91.73-61.61-144.12-25.25-9.22-53.88-19.63-81.56-29.69-25-9.09-49.9-18.14-72.47-26.37Z"/></g><path class="cls-5" d="m4299.35,146.42c251,0,454.48,203.48,454.48,454.48v1259.63c0,251-203.48,454.48-454.48,454.48H921.92c-251,0-454.48-203.48-454.48-454.48V600.9c0-251,203.48-454.48,454.48-454.48h3377.42m0-86.47H921.92c-72.99,0-143.84,14.31-210.59,42.55-32.07,13.57-63,30.35-91.92,49.89-28.63,19.34-55.54,41.55-80,66-24.46,24.46-46.66,51.37-66,80-19.54,28.92-36.33,59.85-49.89,91.92-28.23,66.75-42.55,137.6-42.55,210.59v1259.63c0,72.99,14.31,143.84,42.55,210.59,13.56,32.07,30.35,63,49.89,91.92,19.34,28.63,41.55,55.54,66,80,24.46,24.46,51.37,46.66,80,66,28.92,19.54,59.85,36.32,91.92,49.89,66.75,28.23,137.6,42.55,210.59,42.55h3377.42c72.99,0,143.84-14.31,210.59-42.55,32.07-13.57,63-30.35,91.92-49.89,28.63-19.34,55.54-41.55,80-66,24.46-24.46,46.66-51.37,66-80,19.54-28.92,36.33-59.85,49.89-91.92,28.23-66.75,42.55-137.6,42.55-210.59V600.9c0-72.99-14.31-143.84-42.55-210.59-13.57-32.07-30.35-63-49.89-91.92-19.34-28.63-41.55-55.54-66-80s-51.37-46.66-80-66c-28.92-19.54-59.85-36.33-91.92-49.89-66.75-28.23-137.6-42.55-210.59-42.55h0Z"/></g><g><g><path class="cls-2" d="m288,2530.65v675.97h380.95c30.38,0,53.67,7.38,69.92,22.09,16.23,14.73,24.36,33.25,24.36,55.53s-8.02,41.14-24.05,55.23-39.45,21.14-70.23,21.14H215.2c-40.94,0-70.36-9.06-88.3-27.22s-26.91-47.48-26.91-88.02v-714.8c0-37.98,8.53-66.47,25.62-85.47s39.56-28.5,67.42-28.5,51.17,9.41,68.69,28.2c17.5,18.8,26.27,47.41,26.27,85.83Z"/><path class="cls-5" d="m193.05,2416.61c28.28,0,51.17,9.41,68.69,28.2,17.5,18.8,26.27,47.41,26.27,85.83v675.97h380.95c30.38,0,53.67,7.38,69.92,22.09,16.23,14.73,24.36,33.25,24.36,55.53s-8.02,41.14-24.05,55.23c-16.03,14.09-39.45,21.14-70.23,21.14H215.2c-40.94,0-70.36-9.06-88.3-27.22-17.94-18.16-26.91-47.48-26.91-88.02v-714.8c0-37.98,8.53-66.47,25.62-85.47,17.09-19,39.56-28.5,67.42-28.5m0-100c-27.31,0-53.11,5.05-76.69,15.02-24.79,10.48-46.69,26.16-65.08,46.6-34.03,37.82-51.28,89.08-51.28,152.35v714.8c0,67.58,18.76,120.84,55.77,158.3,37.33,37.78,90.97,56.94,159.44,56.94h453.75c25.09,0,48.46-3.21,69.47-9.53,25.49-7.67,47.96-19.96,66.79-36.51,19.1-16.79,33.8-36.83,43.7-59.56,9.51-21.83,14.33-45.64,14.33-70.78s-4.88-48.81-14.52-70.77c-9.73-22.18-24.07-41.96-42.64-58.81l-.04-.03-.04-.03c-18.83-17.05-41.25-29.77-66.66-37.8-21.36-6.75-45.05-10.18-70.4-10.18h-280.95v-575.97c0-64.34-17.86-116.14-53.08-153.97-18.65-20.01-40.68-35.32-65.51-45.51-23.51-9.65-49.2-14.55-76.37-14.55h0Z"/></g><g><path class="cls-2" d="m863.64,3261.99v-731.39c0-38,8.64-66.48,25.95-85.48,17.3-19,39.66-28.5,67.09-28.5s51.17,9.41,68.69,28.19c17.5,18.78,26.27,47.39,26.27,85.8v731.39c0,38.44-8.77,67.14-26.27,86.14-17.52,18.98-40.41,28.48-68.69,28.48s-49.28-9.61-66.78-28.81c-17.52-19.2-26.27-47.81-26.27-85.81Z"/><path class="cls-5" d="m956.69,2416.61c28.28,0,51.17,9.41,68.69,28.19,17.5,18.78,26.27,47.39,26.27,85.8v731.39c0,38.44-8.77,67.14-26.27,86.14-17.52,18.98-40.41,28.48-68.69,28.48s-49.28-9.61-66.78-28.81c-17.52-19.2-26.27-47.81-26.27-85.81v-731.39c0-38,8.64-66.48,25.95-85.48,17.3-19,39.66-28.5,67.09-28.5m0-100c-27.16,0-52.88,5.08-76.45,15.09-24.48,10.4-46.22,25.91-64.59,46.1-34.5,37.86-52.01,89.28-52.01,152.8v731.39c0,63.55,17.62,115.09,52.38,153.2,18.31,20.09,39.88,35.59,64.09,46.04,23.66,10.21,49.43,15.39,76.58,15.39s53.09-4.96,76.69-14.75c24.85-10.31,46.89-25.76,65.49-45.92l.03-.03.03-.03c34.98-37.97,52.71-89.75,52.71-153.89v-731.39c0-64.35-17.87-116.15-53.1-153.97-18.65-20-40.67-35.29-65.49-45.47-23.51-9.65-49.2-14.54-76.36-14.54h0Z"/></g><g><path class="cls-2" d="m1392.99,2529.36l360.67,547.25v-552.33c0-35.88,7.7-62.8,23.12-80.75,15.42-17.94,36.23-26.92,62.42-26.92s48.38,8.98,64,26.92,23.45,44.86,23.45,80.73v730.12c0,81.48-33.77,122.22-101.3,122.22-16.89,0-32.09-2.44-45.59-7.27-13.5-4.86-26.17-12.55-37.98-23.09s-22.8-22.89-32.92-37.02-20.25-28.58-30.38-43.34l-351.83-540.28v543.45c0,35.44-8.23,62.22-24.69,80.34-16.47,18.12-37.56,27.2-63.31,27.2s-47.92-9.19-63.95-27.55-24.05-45.06-24.05-80.11v-716.2c0-30.39,3.38-54.23,10.12-71.55,8-19,21.3-34.52,39.86-46.55s38.59-18.05,60.11-18.05c16.88,0,31.31,2.75,43.34,8.23,12.02,5.5,22.56,12.89,31.62,22.17,9.06,9.3,18.34,21.33,27.84,36.11,9.48,14.78,19.3,30.19,29.42,46.23Z"/><path class="cls-5" d="m1839.2,2416.61c27.03,0,48.38,8.98,64,26.92s23.45,44.86,23.45,80.73v730.13c0,81.48-33.77,122.22-101.3,122.22-16.89,0-32.09-2.44-45.59-7.27-13.5-4.86-26.17-12.55-37.98-23.09-11.81-10.55-22.8-22.89-32.92-37.02s-20.25-28.58-30.38-43.34l-351.83-540.28v543.45c0,35.44-8.23,62.22-24.69,80.34-16.47,18.12-37.56,27.2-63.31,27.2s-47.92-9.19-63.95-27.55c-16.03-18.36-24.05-45.06-24.05-80.11v-716.2c0-30.39,3.38-54.23,10.12-71.55,8-19,21.3-34.52,39.86-46.55s38.59-18.05,60.11-18.05c16.88,0,31.31,2.75,43.34,8.23,12.02,5.5,22.56,12.89,31.62,22.17,9.06,9.3,18.34,21.33,27.84,36.11,9.48,14.78,19.3,30.19,29.42,46.23l360.67,547.25v-552.33c0-35.88,7.7-62.8,23.12-80.75,15.42-17.94,36.23-26.92,62.42-26.92m0-100c-26.73,0-51.92,5.02-74.86,14.91-24.41,10.53-45.74,26.28-63.39,46.81-31.39,36.55-47.3,85.64-47.3,145.94v218.88l-176.63-268c-9.56-15.15-19.42-30.63-29.3-46.04l-.02-.03-.02-.03c-13.25-20.62-26.46-37.58-40.36-51.84l-.03-.03-.03-.03c-17.65-18.07-38.35-32.62-61.55-43.24l-.07-.03-.07-.03c-25.1-11.44-53.64-17.24-84.82-17.24-41.03,0-79.56,11.48-114.5,34.13-17.3,11.21-32.59,24.51-45.45,39.52-13.35,15.59-24.18,33.13-32.18,52.13l-.52,1.23-.49,1.25c-11.41,29.26-16.96,64.55-16.96,107.87v716.2c0,59.78,16.39,108.86,48.72,145.88,17.88,20.48,39.34,36.2,63.78,46.73,23.18,9.98,48.58,15.05,75.5,15.05s51.58-5.02,74.63-14.93c23.72-10.2,44.82-25.34,62.7-45.02,18.17-20.02,31.65-44.08,40.09-71.55,7.02-22.86,10.59-48.44,10.59-76.04v-206.64l168.03,258.03.65,1,.67.98c10.55,15.39,21.18,30.55,31.57,45.05,14.34,20.01,30.35,37.96,47.6,53.35,21.34,19.05,45.13,33.38,70.72,42.59l.1.03.1.03c24.32,8.7,50.99,13.11,79.27,13.11s57.11-5,81.63-14.86c28.2-11.34,52.2-28.8,71.34-51.88,17.48-21.09,30.4-46.45,38.39-75.38,6.6-23.88,9.94-50.83,9.94-80.1v-730.13c0-60.55-16.17-109.82-48.05-146.42-17.89-20.54-39.54-36.24-64.35-46.68-22.96-9.66-48.22-14.56-75.06-14.56h0Z"/></g><g><path class="cls-2" d="m2214.84,2530.74v325.88l368.92-385.47c17.72-18.59,32.8-32.34,45.25-41.22,12.44-8.88,29-13.31,49.67-13.31,27,0,48.83,7.92,65.5,23.75,16.66,15.84,25,35.16,25,57.94,0,27.44-14.14,54.67-42.41,81.69l-228.44,216.58,263.25,377.41c18.56,26.19,32.48,49.09,41.77,68.72s13.92,38.73,13.92,57.3c0,20.69-8.12,38.64-24.38,53.83s-38.28,22.8-66.12,22.8c-26.16,0-47.47-5.59-63.92-16.78s-30.38-26.06-41.77-44.64c-11.39-18.56-21.52-35.45-30.36-50.66l-222.12-341.92-153.77,147.53v191.86c0,38.84-8.88,67.66-26.59,86.44-17.72,18.77-40.52,28.17-68.36,28.17-16.03,0-31.44-4.23-46.2-12.66-14.78-8.44-26.17-19.84-34.19-34.2-5.91-11.81-9.5-25.53-10.77-41.16s-1.89-38.2-1.89-67.77v-690.23c0-38,8.33-66.48,25-85.48,16.66-19,39.34-28.5,68.05-28.5s51.17,9.41,68.69,28.22c17.5,18.81,26.27,47.44,26.27,85.91Z"/><path class="cls-5" d="m2678.69,2416.61c27,0,48.83,7.92,65.5,23.75,16.66,15.84,25,35.16,25,57.94,0,27.44-14.14,54.67-42.41,81.69l-228.44,216.58,263.25,377.41c18.56,26.19,32.48,49.09,41.77,68.72,9.28,19.62,13.92,38.73,13.92,57.3,0,20.69-8.12,38.64-24.38,53.83s-38.28,22.8-66.12,22.8c-26.16,0-47.47-5.59-63.92-16.78-16.45-11.19-30.38-26.06-41.77-44.64-11.39-18.56-21.52-35.45-30.36-50.66l-222.12-341.92-153.77,147.53v191.86c0,38.84-8.88,67.66-26.59,86.44-17.72,18.77-40.52,28.17-68.36,28.17-16.03,0-31.44-4.23-46.2-12.66-14.78-8.44-26.17-19.84-34.19-34.2-5.91-11.81-9.5-25.53-10.77-41.16s-1.89-38.2-1.89-67.77v-690.23c0-38,8.33-66.48,25-85.48,16.66-19,39.34-28.5,68.05-28.5s51.17,9.41,68.69,28.22c17.5,18.81,26.27,47.44,26.27,85.91v325.88l368.92-385.47c17.72-18.59,32.8-32.34,45.25-41.22,12.44-8.88,29-13.31,49.67-13.31m0-100c-41.8,0-78.04,10.72-107.71,31.88h0c-17.72,12.63-37.19,30.15-59.5,53.56l-196.63,205.45v-76.76c0-64.36-17.85-116.18-53.05-154.02-18.65-20.03-40.69-35.35-65.52-45.55-23.51-9.66-49.21-14.56-76.38-14.56s-53.58,5.01-77.17,14.89c-25.44,10.65-47.67,26.7-66.07,47.69-33.04,37.65-49.8,88.6-49.8,151.41v690.23c0,32.61.73,57.42,2.22,75.84,2.3,28.36,9.36,54.53,21,77.8l1.02,2.03,1.11,1.99c16.99,30.43,41.19,54.76,71.93,72.31,30.04,17.13,62.25,25.81,95.78,25.81,26.99,0,52.59-4.91,76.09-14.6,24.51-10.11,46.38-25.22,64.98-44.92,35.76-37.91,53.88-90.08,53.88-155.09v-149.22l35.77-34.32,154.95,238.51c8.87,15.2,19.06,32.18,30.31,50.51,18.77,30.61,42.59,55.87,70.77,75.03,33.27,22.62,73.69,34.09,120.15,34.09,24.97,0,48.53-3.76,70.02-11.17,24.32-8.39,45.98-21.36,64.39-38.57,17.76-16.6,31.59-35.67,41.1-56.67,9.95-21.98,15-45.6,15-70.22,0-33.39-7.91-67.05-23.52-100.05-11.84-25.04-28.31-52.34-50.33-83.44l-213.84-306.57,165.99-157.37.15-.14.15-.14c22.03-21.06,39.35-43.57,51.46-66.9,14.5-27.93,21.85-57.23,21.85-87.08,0-25.04-4.86-49-14.44-71.2-9.52-22.05-23.53-41.97-41.64-59.19l-.03-.03-.03-.03c-35.3-33.51-81.76-51.23-134.35-51.23h0Z"/></g><g><path class="cls-4" d="m3301.19,2903.24c0,51.81-18.56,95.83-55.69,132.05s-81.22,54.33-132.27,54.33-95.34-18.11-131.62-54.33-54.42-80.23-54.42-132.05,18.03-95.48,54.11-132.34c36.06-36.84,80.05-55.28,131.94-55.28,33.33,0,64.55,8.44,93.66,25.28s52.11,39.8,68.98,68.86,25.31,60.22,25.31,93.48Z"/><path class="cls-5" d="m3113.23,2715.61c33.33,0,64.55,8.44,93.66,25.28,29.11,16.84,52.11,39.8,68.98,68.86s25.31,60.22,25.31,93.48c0,51.81-18.56,95.83-55.69,132.05s-81.22,54.33-132.27,54.33-95.34-18.11-131.62-54.33c-36.28-36.22-54.42-80.23-54.42-132.05s18.03-95.48,54.11-132.34c36.06-36.84,80.05-55.28,131.94-55.28m0-100c-39.16,0-76.36,7.27-110.55,21.59-34.27,14.36-65.51,35.8-92.85,63.74-27.04,27.62-47.79,58.86-61.68,92.83-13.91,34.02-20.96,70.85-20.96,109.46s7.12,75.92,21.15,109.98c14.09,34.19,35.16,65.43,62.62,92.84,27.41,27.36,58.57,48.36,92.61,62.41,34,14.03,70.89,21.15,109.66,21.15s75.29-7.09,109.35-21.08c33.85-13.9,65.06-34.65,92.75-61.67,28.07-27.39,49.63-58.64,64.08-92.9,14.45-34.27,21.78-71.52,21.78-110.73,0-50.97-13.07-99.32-38.83-143.7-25.66-44.19-61.12-79.59-105.38-105.2-44.41-25.7-92.77-38.73-143.74-38.73h0Z"/></g><g><path class="cls-2" d="m3531.74,2977.04v-446.44c0-38,8.53-66.48,25.62-85.48s39.56-28.5,67.42-28.5,52.22,9.52,69.31,28.52,25.64,47.52,25.64,85.53v456.83c0,51.95,5.8,95.36,17.42,130.2s32.22,61.88,61.8,81.09,70.98,28.83,124.23,28.83c73.52,0,125.48-19.53,155.91-58.61,30.42-39.06,45.64-98.31,45.64-177.72v-460.62c0-38.44,8.44-67.05,25.31-85.84s39.45-28.2,67.73-28.2,51.17,9.41,68.69,28.19c17.5,18.8,26.27,47.41,26.27,85.83v446.58c0,72.64-7.08,133.23-21.2,181.8-14.14,48.56-40.83,91.22-80.08,127.95-33.78,31.16-73.06,53.88-117.83,68.19s-97.12,21.47-157.09,21.47c-71.38,0-132.83-7.72-184.34-23.11-51.53-15.41-93.55-39.27-126.06-71.56-32.53-32.28-56.39-73.66-71.59-124.11-15.2-50.44-22.8-110.7-22.8-180.8Z"/><path class="cls-5" d="m4217.79,2416.61c28.28,0,51.17,9.41,68.69,28.19,17.5,18.8,26.27,47.41,26.27,85.83v446.58c0,72.64-7.08,133.23-21.2,181.8-14.14,48.56-40.83,91.22-80.08,127.95-33.78,31.16-73.06,53.88-117.83,68.19-44.77,14.31-97.12,21.47-157.09,21.47-71.38,0-132.83-7.72-184.34-23.11-51.53-15.41-93.55-39.27-126.06-71.56-32.53-32.28-56.39-73.66-71.59-124.11-15.2-50.44-22.8-110.7-22.8-180.8v-446.44c0-38,8.53-66.48,25.62-85.48,17.09-19,39.56-28.5,67.42-28.5s52.22,9.52,69.31,28.52c17.09,19,25.64,47.52,25.64,85.53v456.83c0,51.95,5.8,95.36,17.42,130.2s32.22,61.88,61.8,81.09c29.58,19.22,70.98,28.83,124.23,28.83,73.52,0,125.48-19.53,155.91-58.61,30.42-39.06,45.64-98.31,45.64-177.72v-460.62c0-38.44,8.44-67.05,25.31-85.84,16.88-18.8,39.45-28.2,67.73-28.2m0-100c-27.34,0-53.1,4.96-76.59,14.74-25.08,10.45-47.14,26.14-65.56,46.66-33.77,37.62-50.9,88.98-50.9,152.65v460.62c0,73.76-15.37,104.51-24.54,116.27-9.93,12.75-37.99,20.05-77.01,20.05-45.34,0-63.88-8.87-69.75-12.68-10.55-6.85-16.95-15.49-21.42-28.89-8.15-24.43-12.28-57.58-12.28-98.55v-456.83c0-63.3-17.26-114.58-51.3-152.41-18.61-20.69-40.96-36.49-66.43-46.97-23.63-9.73-49.62-14.66-77.23-14.66s-53.11,5.05-76.69,15.02c-24.79,10.48-46.69,26.16-65.08,46.6-34.03,37.82-51.28,89.09-51.28,152.37v446.44c0,79.57,9.1,150.11,27.05,209.66,19.99,66.33,52.59,122.26,96.9,166.23,44.15,43.85,100.63,76.29,167.86,96.39,60.64,18.12,132.29,27.3,212.99,27.3,70.03,0,133.13-8.82,187.55-26.22,58.57-18.72,110.77-48.98,155.17-89.93l.27-.25.27-.25c52.34-48.99,88.59-107.19,107.76-173.01,16.95-58.29,25.19-126.89,25.19-209.75v-446.58c0-64.34-17.86-116.14-53.08-153.97l-.03-.03-.03-.03c-18.62-19.97-40.64-35.25-65.46-45.44-23.51-9.65-49.2-14.54-76.36-14.54h0Z"/></g><g><path class="cls-2" d="m4773.88,2999.61h-172.61v262.52c0,37.53-8.88,66-26.59,85.39s-40.09,29.09-67.09,29.09-51.06-9.61-68.36-28.8c-17.31-19.2-25.95-47.38-25.95-84.53v-715.44c0-41.36,9.5-70.91,28.53-88.64,19.02-17.72,49.23-26.59,90.66-26.59h241.55c71.44,0,126.38,5.48,164.84,16.44,37.88,10.56,70.59,28.09,98.16,52.59s48.48,54.48,62.8,89.95c14.31,35.48,21.47,75.41,21.47,119.75,0,94.61-17.11,166.31-75.33,215.09s-156.91,73.17-272.06,73.17Zm-45.69-426h-126.92v284h126.92c44.42,0,81.55-4.64,111.38-13.94,29.81-9.3,52.56-24.52,68.22-45.64s23.48-48.81,23.48-83.06c0-40.98-12.06-74.38-36.17-100.16-27.08-27.47-82.72-41.2-166.91-41.2Z"/><path class="cls-5" d="m4774,2432.61c71.44,0,126.38,5.48,164.84,16.44,37.88,10.56,70.59,28.09,98.16,52.59s48.48,54.48,62.8,89.95c14.31,35.48,21.47,75.41,21.47,119.75,0,94.61-17.11,166.31-75.33,215.09s-156.91,73.17-272.06,73.17h-172.61v262.52c0,37.53-8.88,66-26.59,85.39-17.72,19.39-40.09,29.09-67.09,29.09s-51.06-9.61-68.36-28.8c-17.31-19.2-25.95-47.38-25.95-84.53v-715.44c0-41.36,9.5-70.91,28.53-88.64,19.02-17.72,49.23-26.59,90.66-26.59h241.55m-172.73,425h126.92c44.42,0,81.55-4.64,111.38-13.94,29.81-9.3,52.56-24.52,68.22-45.64s23.48-48.81,23.48-83.06c0-40.98-12.06-74.38-36.17-100.16-27.08-27.47-82.72-41.2-166.91-41.2h-126.92v284m172.73-525h-241.55c-30.57,0-57.35,3.5-81.89,10.7-30.1,8.83-55.99,23.21-76.94,42.73-22.11,20.6-38.4,46.84-48.42,77.99-8.03,24.96-11.94,52.37-11.94,83.81v715.44c0,62.48,17.39,113.45,51.68,151.49,18.5,20.53,40.54,36.27,65.5,46.79,23.7,9.99,49.65,15.05,77.13,15.05s53.05-5.23,76.81-15.53c24.15-10.47,45.72-25.98,64.1-46.11,18.79-20.56,32.79-45.33,41.59-73.61,7.42-23.81,11.18-50.47,11.18-79.24v-162.52h72.61c66.89,0,128.4-7.26,182.83-21.59,61.93-16.3,113.56-41.51,153.46-74.94,21.82-18.28,40.64-39.49,55.95-63.03,14.31-22.02,25.92-46.68,34.5-73.31,14.09-43.72,20.65-93.1,20.65-155.41,0-57.02-9.67-109.9-28.73-157.16-20.08-49.76-50.06-92.58-89.1-127.29-38.83-34.51-85.06-59.44-137.41-74.09-47.86-13.59-110.67-20.2-192.02-20.2h0Zm-72.73,341h26.92c65.41,0,90.38,9.66,96.44,12.59,2.98,4.2,6.64,12.21,6.64,28.77,0,15.06-2.76,22.08-3.83,23.52-3.53,4.77-12.57,8.13-17.65,9.72-13.76,4.29-39.09,9.4-81.6,9.4h-26.92v-84h0Z"/></g></g></svg>